<?xml version="1.0" encoding="UTF-8"?>
<svg xmlns="http://www.w3.org/2000/svg" xmlns:xlink="http://www.w3.org/1999/xlink" width="500px" height="170px" viewBox="0 0 499 170" version="1.1">
<defs>
<filter id="alpha" filterUnits="objectBoundingBox" x="0%" y="0%" width="100%" height="100%">
  <feColorMatrix type="matrix" in="SourceGraphic" values="0 0 0 0 1 0 0 0 0 1 0 0 0 0 1 0 0 0 1 0"/>
</filter>
<mask id="mask0">
  <g filter="url(#alpha)">
<rect x="0" y="0" width="499" height="170" style="fill:rgb(0%,0%,0%);fill-opacity:0.964706;stroke:none;"/>
  </g>
</mask>
<clipPath id="clip1">
  <rect x="0" y="0" width="499" height="170"/>
</clipPath>
<g id="surface5" clip-path="url(#clip1)">
<path style=" stroke:none;fill-rule:evenodd;fill:rgb(99.607843%,100%,0%);fill-opacity:1;" d="M 249.375 0.125 C 251.484375 -0.339844 252.941406 0.410156 253.742188 2.371094 C 253.867188 6.449219 253.910156 10.523438 253.867188 14.605469 C 256.265625 14.84375 258.59375 15.382812 260.851562 16.226562 C 258.054688 17.15625 257.472656 18.820312 259.105469 21.21875 C 260.222656 21.746094 261.382812 22.121094 262.597656 22.34375 C 264.855469 25.949219 266.355469 29.859375 267.089844 34.074219 C 269.589844 34.15625 272.085938 34.074219 274.574219 33.824219 C 273.765625 32.117188 272.765625 30.535156 271.582031 29.082031 C 272.066406 27.53125 272.4375 25.949219 272.703125 24.339844 C 272.804688 24.226562 272.929688 24.140625 273.078125 24.089844 C 281.644531 33.785156 283.765625 44.769531 279.441406 57.042969 C 273.851562 69.390625 264.246094 75.882812 250.621094 76.511719 C 241.351562 76.214844 233.617188 72.675781 227.417969 65.902344 C 229.089844 65.542969 230.753906 65.167969 232.410156 64.78125 C 234.382812 66.722656 236.628906 68.179688 239.144531 69.148438 C 236.914062 65.738281 235.332031 62.035156 234.40625 58.039062 C 231.664062 57.832031 228.921875 57.707031 226.171875 57.664062 C 225.652344 55.566406 225.195312 53.445312 224.800781 51.300781 C 224.496094 49.648438 223.496094 48.730469 221.804688 48.554688 C 221.179688 48.707031 220.597656 48.957031 220.058594 49.300781 C 218.863281 35.429688 224.226562 24.988281 236.152344 17.972656 C 239.675781 16.117188 243.417969 14.996094 247.378906 14.605469 C 247.335938 10.609375 247.378906 6.613281 247.503906 2.621094 C 247.808594 1.53125 248.429688 0.699219 249.375 0.125 Z M 252.867188 19.347656 C 255.117188 20.136719 256.90625 21.550781 258.234375 23.589844 C 260.230469 26.761719 261.6875 30.171875 262.597656 33.824219 C 259.359375 34.074219 256.117188 34.15625 252.867188 34.074219 C 252.867188 29.164062 252.867188 24.257812 252.867188 19.347656 Z M 238.648438 21.59375 C 238.832031 21.558594 238.996094 21.601562 239.144531 21.71875 C 236.695312 25.414062 235.035156 29.449219 234.15625 33.824219 C 231.664062 34.117188 229.171875 34.15625 226.671875 33.949219 C 229.449219 28.632812 233.441406 24.511719 238.648438 21.59375 Z M 237.898438 38.320312 C 241.390625 38.320312 244.882812 38.320312 248.378906 38.320312 C 248.378906 43.394531 248.378906 48.46875 248.378906 53.546875 C 244.90625 53.625 241.453125 53.542969 238.023438 53.296875 C 237.25 48.308594 237.210938 43.316406 237.898438 38.320312 Z M 267.839844 38.320312 C 270.664062 38.320312 273.496094 38.320312 276.320312 38.320312 C 277.6875 43.417969 277.605469 48.492188 276.070312 53.546875 C 273.328125 53.546875 270.582031 53.546875 267.839844 53.546875 C 268.46875 48.46875 268.46875 43.390625 267.839844 38.320312 Z M 238.894531 58.039062 C 242.011719 57.792969 245.171875 57.707031 248.378906 57.789062 C 248.460938 62.371094 248.378906 66.945312 248.128906 71.519531 C 246.097656 70.691406 244.472656 69.359375 243.261719 67.527344 C 241.324219 64.5625 239.867188 61.402344 238.894531 58.039062 Z M 252.867188 57.789062 C 256.03125 57.707031 259.191406 57.789062 262.347656 58.039062 C 261.234375 62.730469 258.988281 66.765625 255.613281 70.148438 C 254.773438 70.78125 253.859375 71.238281 252.867188 71.519531 C 252.867188 66.941406 252.867188 62.367188 252.867188 57.789062 Z M 252.867188 57.789062 "/>
</g>
<mask id="mask1">
  <g filter="url(#alpha)">
<rect x="0" y="0" width="499" height="170" style="fill:rgb(0%,0%,0%);fill-opacity:0.882353;stroke:none;"/>
  </g>
</mask>
<clipPath id="clip2">
  <rect x="0" y="0" width="499" height="170"/>
</clipPath>
<g id="surface8" clip-path="url(#clip2)">
<path style=" stroke:none;fill-rule:evenodd;fill:rgb(99.607843%,100%,0%);fill-opacity:1;" d="M 281.5625 4.617188 C 282.046875 4.550781 282.421875 4.714844 282.683594 5.117188 C 282.929688 6.460938 283.21875 7.792969 283.558594 9.113281 C 285.007812 9.628906 286.503906 10 288.046875 10.234375 C 288.417969 10.738281 288.335938 11.15625 287.796875 11.484375 C 286.453125 11.726562 285.125 12.019531 283.804688 12.355469 C 283.261719 13.707031 282.886719 15.121094 282.683594 16.601562 C 282.355469 17.140625 281.941406 17.222656 281.4375 16.851562 C 281.128906 15.351562 280.835938 13.855469 280.5625 12.355469 C 274.257812 11.296875 274.257812 10.300781 280.5625 9.359375 C 280.832031 7.761719 281.167969 6.179688 281.5625 4.617188 Z M 281.5625 4.617188 "/>
</g>
<mask id="mask2">
  <g filter="url(#alpha)">
<rect x="0" y="0" width="499" height="170" style="fill:rgb(0%,0%,0%);fill-opacity:0.917647;stroke:none;"/>
  </g>
</mask>
<clipPath id="clip3">
  <rect x="0" y="0" width="499" height="170"/>
</clipPath>
<g id="surface11" clip-path="url(#clip3)">
<path style=" stroke:none;fill-rule:evenodd;fill:rgb(99.607843%,100%,0%);fill-opacity:1;" d="M 268.585938 9.859375 C 269.347656 9.699219 269.886719 9.949219 270.207031 10.609375 C 270.65625 12.597656 271.070312 14.597656 271.457031 16.601562 C 271.582031 16.726562 271.707031 16.851562 271.832031 16.976562 C 274.078125 17.390625 276.28125 17.933594 278.441406 18.597656 C 278.625 19.082031 278.585938 19.539062 278.316406 19.96875 C 275.980469 20.355469 273.691406 20.894531 271.457031 21.59375 C 271.039062 23.671875 270.625 25.753906 270.207031 27.835938 C 269.75 28.71875 269.171875 28.800781 268.460938 28.082031 C 268.054688 25.90625 267.59375 23.742188 267.089844 21.59375 C 264.898438 20.878906 262.652344 20.339844 260.351562 19.96875 C 259.691406 19.382812 259.730469 18.84375 260.476562 18.347656 C 262.664062 17.910156 264.824219 17.410156 266.964844 16.851562 C 267.554688 14.53125 268.09375 12.203125 268.585938 9.859375 Z M 268.585938 9.859375 "/>
</g>
<mask id="mask3">
  <g filter="url(#alpha)">
<rect x="0" y="0" width="499" height="170" style="fill:rgb(0%,0%,0%);fill-opacity:0.933333;stroke:none;"/>
  </g>
</mask>
<clipPath id="clip4">
  <rect x="0" y="0" width="499" height="170"/>
</clipPath>
<g id="surface14" clip-path="url(#clip4)">
<path style=" stroke:none;fill-rule:evenodd;fill:rgb(99.607843%,100%,0%);fill-opacity:1;" d="M 221.183594 50.550781 C 221.753906 50.488281 222.292969 50.570312 222.804688 50.800781 C 223.417969 53.453125 224 56.117188 224.550781 58.789062 C 224.675781 58.914062 224.800781 59.039062 224.925781 59.164062 C 227.578125 59.777344 230.238281 60.359375 232.910156 60.910156 C 233.605469 62.058594 233.269531 62.808594 231.910156 63.15625 C 229.566406 63.59375 227.238281 64.09375 224.925781 64.65625 C 224.800781 64.78125 224.675781 64.90625 224.550781 65.03125 C 224 67.699219 223.417969 70.363281 222.804688 73.019531 C 222.074219 73.394531 221.410156 73.3125 220.808594 72.769531 C 220.277344 70.03125 219.652344 67.328125 218.9375 64.65625 C 216.285156 64.039062 213.621094 63.457031 210.953125 62.90625 C 210.285156 62.242188 210.285156 61.578125 210.953125 60.910156 C 213.628906 60.332031 216.289062 59.710938 218.9375 59.039062 C 219.625 56.175781 220.371094 53.347656 221.183594 50.550781 Z M 221.183594 50.550781 "/>
</g>
<mask id="mask4">
  <g filter="url(#alpha)">
<rect x="0" y="0" width="499" height="170" style="fill:rgb(0%,0%,0%);fill-opacity:0.964706;stroke:none;"/>
  </g>
</mask>
<clipPath id="clip5">
  <rect x="0" y="0" width="499" height="170"/>
</clipPath>
<g id="surface17" clip-path="url(#clip5)">
<path style=" stroke:none;fill-rule:evenodd;fill:rgb(99.607843%,100%,0%);fill-opacity:1;" d="M 324.972656 93.988281 C 325.433594 94.140625 325.722656 94.476562 325.847656 94.984375 C 326.90625 101.542969 326.574219 108.035156 324.847656 114.457031 C 324.335938 116.082031 323.589844 117.578125 322.601562 118.949219 C 321.816406 116.042969 320.980469 113.128906 320.109375 110.214844 C 317.65625 103.886719 313.039062 101.265625 306.261719 102.347656 C 301.046875 103.40625 297.761719 106.527344 296.40625 111.710938 C 294.105469 125.332031 295.519531 138.5625 300.648438 151.402344 C 302.070312 154.882812 304.191406 157.835938 307.007812 160.265625 C 309.082031 161.570312 311.203125 161.695312 313.371094 160.640625 C 313.585938 160.242188 313.753906 159.828125 313.871094 159.390625 C 314.515625 151.496094 314.601562 143.59375 314.121094 135.675781 C 313.914062 133.476562 312.960938 131.6875 311.25 130.308594 C 310.292969 129.789062 309.378906 129.207031 308.507812 128.5625 C 315.410156 128.394531 322.3125 128.394531 329.214844 128.5625 C 327.042969 130.535156 325.753906 132.992188 325.347656 135.925781 C 324.472656 145.667969 324.554688 155.402344 325.597656 165.132812 C 325.816406 166.636719 326.1875 168.09375 326.71875 169.5 C 318.710938 170.164062 311.0625 168.832031 303.765625 165.507812 C 294.113281 160.085938 287.917969 151.972656 285.179688 141.167969 C 282.734375 132.035156 282.15625 122.800781 283.433594 113.457031 C 285.925781 104.304688 291.871094 99.023438 301.269531 97.605469 C 305.648438 97.179688 310.015625 97.140625 314.371094 97.480469 C 317.417969 97.492188 320.367188 96.953125 323.226562 95.859375 C 324.035156 95.425781 324.617188 94.800781 324.972656 93.988281 Z M 324.972656 93.988281 "/>
</g>
<mask id="mask5">
  <g filter="url(#alpha)">
<rect x="0" y="0" width="499" height="170" style="fill:rgb(0%,0%,0%);fill-opacity:0.968627;stroke:none;"/>
  </g>
</mask>
<clipPath id="clip6">
  <rect x="0" y="0" width="499" height="170"/>
</clipPath>
<g id="surface20" clip-path="url(#clip6)">
<path style=" stroke:none;fill-rule:evenodd;fill:rgb(99.607843%,100%,0%);fill-opacity:1;" d="M 3.617188 97.230469 C 17.757812 97.191406 31.894531 97.230469 46.03125 97.355469 C 46.773438 97.796875 47.316406 98.421875 47.65625 99.230469 C 49.226562 104.460938 49.640625 109.785156 48.902344 115.207031 C 48.761719 116.359375 48.425781 117.441406 47.902344 118.449219 C 46.441406 113.691406 44.195312 109.363281 41.167969 105.46875 C 39.425781 103.472656 37.261719 102.226562 34.679688 101.726562 C 33.214844 101.707031 32.21875 102.375 31.6875 103.722656 C 31.195312 105.015625 30.863281 106.347656 30.6875 107.714844 C 30.523438 124.941406 30.523438 142.164062 30.6875 159.390625 C 31.296875 163.480469 33.417969 166.515625 37.050781 168.503906 C 29.066406 168.667969 21.082031 168.667969 13.097656 168.503906 C 16.773438 165.933594 18.726562 162.398438 18.960938 157.894531 C 19.195312 140.832031 19.113281 123.773438 18.710938 106.71875 C 17.804688 101.246094 15.101562 100.207031 10.605469 103.597656 C 6.3125 107.730469 3.316406 112.683594 1.621094 118.449219 C 1.015625 117.191406 0.640625 115.859375 0.5 114.457031 C 0.078125 109.636719 0.496094 104.894531 1.746094 100.226562 C 2.0625 99.011719 2.683594 98.011719 3.617188 97.230469 Z M 3.617188 97.230469 "/>
</g>
<mask id="mask6">
  <g filter="url(#alpha)">
<rect x="0" y="0" width="499" height="170" style="fill:rgb(0%,0%,0%);fill-opacity:0.968627;stroke:none;"/>
  </g>
</mask>
<clipPath id="clip7">
  <rect x="0" y="0" width="499" height="170"/>
</clipPath>
<g id="surface23" clip-path="url(#clip7)">
<path style=" stroke:none;fill-rule:evenodd;fill:rgb(99.607843%,100%,0%);fill-opacity:1;" d="M 48.277344 97.230469 C 53.851562 97.148438 59.425781 97.230469 64.996094 97.480469 C 64.378906 99.253906 64.128906 101.085938 64.246094 102.972656 C 64.804688 110.296875 65.925781 117.535156 67.613281 124.691406 C 69.695312 133.84375 71.773438 142.996094 73.851562 152.152344 C 77.5 137.308594 80.285156 122.289062 82.210938 107.09375 C 82.140625 104.503906 81.765625 101.964844 81.085938 99.480469 C 80.777344 98.773438 80.402344 98.105469 79.964844 97.480469 C 85.871094 97.148438 91.773438 97.148438 97.679688 97.480469 C 95.714844 101.445312 95.175781 105.609375 96.058594 109.964844 C 98.796875 124.328125 101.789062 138.640625 105.039062 152.898438 C 108.675781 137.480469 111.585938 121.921875 113.773438 106.21875 C 114.21875 102.796875 113.261719 99.839844 110.902344 97.355469 C 116.476562 97.148438 122.050781 97.191406 127.621094 97.480469 C 124.453125 100.984375 122.332031 105.0625 121.257812 109.714844 C 117.425781 126.046875 113.851562 142.441406 110.527344 158.890625 C 109.832031 162.230469 110.125 165.476562 111.402344 168.628906 C 105.914062 168.8125 100.421875 168.730469 94.933594 168.378906 C 95.988281 166.394531 96.488281 164.273438 96.433594 162.011719 C 95.839844 156.253906 94.882812 150.550781 93.5625 144.910156 C 91.726562 136.902344 89.816406 128.914062 87.824219 120.945312 C 84.867188 133.734375 82.042969 146.546875 79.339844 159.390625 C 78.679688 162.5625 78.972656 165.640625 80.214844 168.628906 C 74.726562 168.8125 69.234375 168.730469 63.746094 168.378906 C 64.707031 166.371094 65.203125 164.25 65.246094 162.011719 C 64.652344 156.085938 63.695312 150.222656 62.375 144.414062 C 59.578125 130.882812 56 117.570312 51.648438 104.472656 C 50.652344 101.984375 49.53125 99.570312 48.277344 97.230469 Z M 48.277344 97.230469 "/>
</g>
<mask id="mask7">
  <g filter="url(#alpha)">
<rect x="0" y="0" width="499" height="170" style="fill:rgb(0%,0%,0%);fill-opacity:0.968627;stroke:none;"/>
  </g>
</mask>
<clipPath id="clip8">
  <rect x="0" y="0" width="499" height="170"/>
</clipPath>
<g id="surface26" clip-path="url(#clip8)">
<path style=" stroke:none;fill-rule:evenodd;fill:rgb(99.607843%,100%,0%);fill-opacity:1;" d="M 128.617188 97.480469 C 140.386719 97.191406 152.195312 97.148438 164.046875 97.355469 C 166.007812 98.496094 167.214844 100.199219 167.664062 102.472656 C 168.457031 105.421875 168.707031 108.417969 168.414062 111.460938 C 168.328125 112.628906 167.996094 113.710938 167.414062 114.707031 C 166.023438 111.839844 164.441406 109.09375 162.675781 106.46875 C 160.816406 104.4375 158.53125 103.148438 155.8125 102.597656 C 152.996094 102.210938 150.167969 102.128906 147.328125 102.347656 C 145.457031 102.558594 144.417969 103.597656 144.210938 105.46875 C 143.714844 108.648438 143.796875 111.8125 144.460938 114.957031 C 145.308594 116.609375 146.679688 117.484375 148.578125 117.578125 C 154.316406 117.660156 160.054688 117.742188 165.792969 117.828125 C 164.464844 121.941406 161.636719 123.980469 157.308594 123.941406 C 155.703125 123.945312 154.121094 123.738281 152.570312 123.320312 C 150.90625 123.152344 149.242188 123.152344 147.578125 123.320312 C 145.082031 123.9375 143.875 125.558594 143.960938 128.1875 C 143.796875 136.757812 143.796875 145.328125 143.960938 153.898438 C 144.023438 156.070312 144.191406 158.234375 144.460938 160.390625 C 144.792969 161.886719 145.667969 162.925781 147.082031 163.507812 C 157.242188 165.355469 163.9375 161.402344 167.164062 151.652344 C 167.386719 151.351562 167.59375 151.351562 167.789062 151.652344 C 168.253906 152.511719 168.546875 153.425781 168.660156 154.398438 C 169 158.042969 168.667969 161.621094 167.664062 165.132812 C 167.152344 166.308594 166.445312 167.347656 165.542969 168.253906 C 152.421875 168.667969 139.285156 168.75 126.121094 168.503906 C 128.839844 167.199219 130.792969 165.160156 131.984375 162.386719 C 132.351562 161.332031 132.601562 160.25 132.734375 159.140625 C 132.902344 141.5 132.902344 123.859375 132.734375 106.21875 C 132.621094 102.667969 131.25 99.757812 128.617188 97.480469 Z M 128.617188 97.480469 "/>
</g>
<mask id="mask8">
  <g filter="url(#alpha)">
<rect x="0" y="0" width="499" height="170" style="fill:rgb(0%,0%,0%);fill-opacity:0.968627;stroke:none;"/>
  </g>
</mask>
<clipPath id="clip9">
  <rect x="0" y="0" width="499" height="170"/>
</clipPath>
<g id="surface29" clip-path="url(#clip9)">
<path style=" stroke:none;fill-rule:evenodd;fill:rgb(99.607843%,100%,0%);fill-opacity:1;" d="M 198.976562 97.230469 C 203.96875 97.191406 208.957031 97.230469 213.945312 97.355469 C 212.453125 99.300781 211.789062 101.507812 211.949219 103.972656 C 213.832031 121.609375 216.703125 139.082031 220.558594 156.394531 C 221.273438 159.175781 222.105469 161.921875 223.054688 164.632812 C 223.535156 166.054688 224.242188 167.34375 225.171875 168.503906 C 219.683594 168.628906 214.195312 168.667969 208.707031 168.628906 C 209.320312 161.210938 208.695312 153.886719 206.835938 146.660156 C 204.988281 141.234375 201.871094 136.703125 197.480469 133.054688 C 194.804688 131.066406 191.8125 129.945312 188.496094 129.683594 C 186.738281 129.332031 185.699219 129.996094 185.378906 131.679688 C 182.382812 142.585938 182.628906 153.402344 186.128906 164.132812 C 186.726562 165.640625 187.351562 167.140625 188 168.628906 C 183.257812 168.960938 178.515625 168.960938 173.777344 168.628906 C 174.265625 167.253906 174.554688 165.839844 174.648438 164.382812 C 174.394531 153.242188 175.558594 142.257812 178.144531 131.433594 C 180.777344 121.414062 185.4375 112.507812 192.113281 104.722656 C 194.453125 102.257812 196.742188 99.761719 198.976562 97.230469 Z M 188.246094 124.441406 C 189.316406 121.972656 190.519531 119.558594 191.867188 117.203125 C 194.167969 113.734375 196.664062 110.40625 199.351562 107.21875 C 200.988281 114.332031 202.402344 121.488281 203.59375 128.6875 C 199.230469 124.691406 194.113281 123.277344 188.246094 124.441406 Z M 188.246094 124.441406 "/>
</g>
<mask id="mask9">
  <g filter="url(#alpha)">
<rect x="0" y="0" width="499" height="170" style="fill:rgb(0%,0%,0%);fill-opacity:0.972549;stroke:none;"/>
  </g>
</mask>
<clipPath id="clip10">
  <rect x="0" y="0" width="499" height="170"/>
</clipPath>
<g id="surface32" clip-path="url(#clip10)">
<path style=" stroke:none;fill-rule:evenodd;fill:rgb(99.607843%,100%,0%);fill-opacity:1;" d="M 230.164062 97.230469 C 236.320312 97.191406 242.472656 97.230469 248.625 97.355469 C 247.101562 99.117188 246.144531 101.15625 245.757812 103.472656 C 245.375 107.042969 245.292969 110.621094 245.507812 114.207031 C 246.023438 116.800781 247.601562 117.964844 250.25 117.703125 C 252.742188 117.703125 254.945312 116.914062 256.859375 115.332031 C 261.871094 110.921875 264.40625 105.386719 264.46875 98.730469 C 264.359375 98.226562 264.152344 97.769531 263.847656 97.355469 C 268.753906 97.191406 273.660156 97.191406 278.566406 97.355469 C 277.929688 98.253906 277.390625 99.210938 276.945312 100.226562 C 274.859375 106.859375 271.410156 112.640625 266.589844 117.578125 C 265.386719 118.554688 264.140625 119.46875 262.847656 120.324219 C 263.210938 136.558594 268.242188 151.160156 277.941406 164.132812 C 279.398438 165.589844 280.855469 167.046875 282.308594 168.503906 C 276.820312 168.667969 271.332031 168.667969 265.84375 168.503906 C 262.09375 163.664062 259.640625 158.214844 258.480469 152.152344 C 256.769531 143.480469 255.519531 134.742188 254.738281 125.941406 C 253.804688 123.828125 252.183594 122.914062 249.875 123.195312 C 247.152344 122.960938 245.699219 124.210938 245.507812 126.9375 C 245.300781 137.175781 245.382812 147.410156 245.757812 157.644531 C 245.816406 161.386719 246.359375 165.050781 247.378906 168.628906 C 242.136719 168.710938 236.898438 168.628906 231.660156 168.378906 C 233.085938 165.035156 233.792969 161.539062 233.78125 157.894531 C 234.394531 140.65625 234.144531 123.433594 233.03125 106.21875 C 232.84375 102.960938 231.886719 99.964844 230.164062 97.230469 Z M 230.164062 97.230469 "/>
</g>
<mask id="mask10">
  <g filter="url(#alpha)">
<rect x="0" y="0" width="499" height="170" style="fill:rgb(0%,0%,0%);fill-opacity:0.968627;stroke:none;"/>
  </g>
</mask>
<clipPath id="clip11">
  <rect x="0" y="0" width="499" height="170"/>
</clipPath>
<g id="surface35" clip-path="url(#clip11)">
<path style=" stroke:none;fill-rule:evenodd;fill:rgb(99.607843%,100%,0%);fill-opacity:1;" d="M 359.40625 97.230469 C 364.398438 97.148438 369.386719 97.230469 374.375 97.480469 C 372.988281 99.363281 372.320312 101.484375 372.378906 103.847656 C 374.289062 121.089844 377.074219 138.191406 380.738281 155.148438 C 381.40625 157.832031 382.15625 160.496094 382.984375 163.136719 C 383.625 165.042969 384.496094 166.832031 385.601562 168.503906 C 380.113281 168.628906 374.625 168.667969 369.136719 168.628906 C 369.476562 166.855469 369.644531 165.070312 369.632812 163.261719 C 369.496094 157.089844 368.539062 151.058594 366.765625 145.160156 C 364.308594 138.460938 359.863281 133.59375 353.417969 130.558594 C 351.074219 129.589844 348.703125 129.464844 346.304688 130.183594 C 344.535156 135.746094 343.75 141.445312 343.9375 147.285156 C 343.867188 150.589844 344.074219 153.875 344.558594 157.144531 C 345.578125 161.15625 346.867188 165.066406 348.425781 168.875 C 343.769531 168.875 339.113281 168.875 334.453125 168.875 C 335.289062 162.921875 335.664062 156.929688 335.578125 150.902344 C 336.09375 140.519531 338.339844 130.535156 342.3125 120.945312 C 344.910156 115.492188 348.074219 110.417969 351.796875 105.71875 C 354.289062 102.847656 356.828125 100.019531 359.40625 97.230469 Z M 348.675781 124.441406 C 351.464844 118.03125 355.25 112.289062 360.027344 107.21875 C 361.492188 114.363281 362.820312 121.519531 364.019531 128.6875 C 359.660156 124.691406 354.542969 123.277344 348.675781 124.441406 Z M 348.675781 124.441406 "/>
</g>
<mask id="mask11">
  <g filter="url(#alpha)">
<rect x="0" y="0" width="499" height="170" style="fill:rgb(0%,0%,0%);fill-opacity:0.972549;stroke:none;"/>
  </g>
</mask>
<clipPath id="clip12">
  <rect x="0" y="0" width="499" height="170"/>
</clipPath>
<g id="surface38" clip-path="url(#clip12)">
<path style=" stroke:none;fill-rule:evenodd;fill:rgb(99.607843%,100%,0%);fill-opacity:1;" d="M 389.34375 97.230469 C 395.5 97.230469 401.652344 97.230469 407.808594 97.230469 C 408.941406 102.261719 410.226562 107.253906 411.675781 112.210938 C 414.589844 121.722656 417.585938 131.207031 420.65625 140.667969 C 424.898438 126.273438 429.140625 111.878906 433.382812 97.480469 C 439.558594 97.191406 445.753906 97.148438 451.96875 97.355469 C 449.199219 99.925781 447.824219 103.128906 447.851562 106.96875 C 447.113281 120.855469 446.78125 134.75 446.855469 148.65625 C 446.863281 154.179688 447.277344 159.671875 448.101562 165.132812 C 448.410156 166.328125 448.785156 167.492188 449.226562 168.628906 C 444.316406 168.710938 439.410156 168.628906 434.503906 168.378906 C 435.003906 167.339844 435.378906 166.257812 435.628906 165.132812 C 436.699219 148.167969 436.949219 131.195312 436.375 114.207031 C 430.785156 132.359375 425.171875 150.5 419.535156 168.628906 C 413.699219 150.660156 407.835938 132.6875 401.945312 114.707031 C 401.554688 130.269531 401.722656 145.832031 402.445312 161.386719 C 402.535156 163.917969 403.242188 166.246094 404.5625 168.378906 C 400.15625 168.667969 395.75 168.710938 391.339844 168.503906 C 392.195312 167.332031 392.820312 166.042969 393.210938 164.632812 C 393.589844 162.484375 393.839844 160.320312 393.960938 158.140625 C 394.585938 140.738281 394.335938 123.347656 393.210938 105.96875 C 393.015625 104.25 392.601562 102.585938 391.964844 100.976562 C 391.222656 99.617188 390.351562 98.367188 389.34375 97.230469 Z M 389.34375 97.230469 "/>
</g>
<mask id="mask12">
  <g filter="url(#alpha)">
<rect x="0" y="0" width="499" height="170" style="fill:rgb(0%,0%,0%);fill-opacity:0.960784;stroke:none;"/>
  </g>
</mask>
<clipPath id="clip13">
  <rect x="0" y="0" width="499" height="170"/>
</clipPath>
<g id="surface41" clip-path="url(#clip13)">
<path style=" stroke:none;fill-rule:evenodd;fill:rgb(99.607843%,100%,0%);fill-opacity:1;" d="M 458.457031 97.230469 C 470.265625 97.191406 482.078125 97.230469 493.886719 97.355469 C 495.59375 98.5625 496.714844 100.1875 497.253906 102.226562 C 498.074219 105.421875 498.324219 108.667969 498.003906 111.960938 C 497.855469 112.957031 497.527344 113.871094 497.003906 114.707031 C 495.632812 111.960938 494.136719 109.300781 492.511719 106.71875 C 489.246094 103.355469 485.253906 101.855469 480.535156 102.226562 C 479.332031 102.265625 478.125 102.308594 476.917969 102.347656 C 475.226562 102.585938 474.226562 103.542969 473.925781 105.21875 C 473.5625 108.472656 473.601562 111.71875 474.050781 114.957031 C 474.894531 116.609375 476.269531 117.484375 478.167969 117.578125 C 483.90625 117.617188 489.644531 117.742188 495.382812 117.953125 C 494.027344 122.039062 491.199219 124.039062 486.898438 123.941406 C 485.292969 123.945312 483.710938 123.738281 482.160156 123.320312 C 479.953125 123.039062 477.789062 123.203125 475.671875 123.816406 C 474.582031 124.457031 473.957031 125.414062 473.800781 126.6875 C 473.632812 137.171875 473.632812 147.65625 473.800781 158.140625 C 473.644531 160.320312 474.433594 162.027344 476.171875 163.261719 C 486.523438 165.507812 493.386719 161.640625 496.753906 151.652344 C 496.976562 151.351562 497.1875 151.351562 497.378906 151.652344 C 497.792969 152.441406 498.085938 153.273438 498.25 154.148438 C 498.632812 157.882812 498.300781 161.542969 497.253906 165.132812 C 496.824219 166.367188 496.117188 167.40625 495.132812 168.253906 C 482.015625 168.667969 468.871094 168.75 455.710938 168.503906 C 459.527344 166.765625 461.730469 163.808594 462.324219 159.640625 C 462.492188 141.75 462.492188 123.859375 462.324219 105.96875 C 462.148438 104.4375 461.816406 102.9375 461.324219 101.476562 C 460.597656 99.882812 459.644531 98.46875 458.457031 97.230469 Z M 458.457031 97.230469 "/>
</g>
</defs>
<g id="surface1">
<use xlink:href="#surface5" mask="url(#mask0)"/>
<use xlink:href="#surface8" mask="url(#mask1)"/>
<use xlink:href="#surface11" mask="url(#mask2)"/>
<use xlink:href="#surface14" mask="url(#mask3)"/>
<use xlink:href="#surface17" mask="url(#mask4)"/>
<use xlink:href="#surface20" mask="url(#mask5)"/>
<use xlink:href="#surface23" mask="url(#mask6)"/>
<use xlink:href="#surface26" mask="url(#mask7)"/>
<use xlink:href="#surface29" mask="url(#mask8)"/>
<use xlink:href="#surface32" mask="url(#mask9)"/>
<use xlink:href="#surface35" mask="url(#mask10)"/>
<use xlink:href="#surface38" mask="url(#mask11)"/>
<use xlink:href="#surface41" mask="url(#mask12)"/>
</g>
</svg>
